# xmcd
#
# Track frame offsets: 
#        150
#        13390
#        25925
#        39387
#        53030
#        66895
#        79047
#        91139
#        105488
#        119716
#        134044
#        146902
#        160847
#        175257
#        188033
#        201878
#        214998
#        227714
#        241741
#        254981
#        268786
#        282187
#        297725
#        311409
#
# Disc length: 4296 seconds
#
# Revision: 2
# Processed by: cddbd v1.5.2PL0 Copyright (c) Steve Scherf et al.
# Submitted via: ExactAudioCopy v1.1
#
DISCID=7410c618
DTITLE=Various Artist - 24 Classic Blues Songs (Tefteller) - Volume 1
DTITLE=5
DYEAR=2017
DGENRE=Blues
TTITLE0=Kansas Joe and Memphis Minnie - Frisco Town (mono)
TTITLE1=Tampa Red and Georgia Tom - Strewin' Your Mess (mono)
TTITLE2=Blind Lemon Jefferson and His Feet - Hot Dogs (mono)
TTITLE3=Blind Willie Johnson - God Moves On The Water (mono)
TTITLE4=Charley Patton - Screamin' And Hollerin' The Blues (mono)
TTITLE5=Blind Blake - Hard Road Blues (mono)
TTITLE6=Bertha Henderson with Blind Blake - Lead Hearted Blues (mono)
TTITLE7=Tommy Johnson - Slidin' Delta (mono)
TTITLE8=The Beale Street Sheiks - Wasn't That Doggin' Me (mono)
TTITLE9=Johnnie (Geechie) Temple - The Evil Devil Blues (mono)
TTITLE10=The Mississippi Moaner - It's Cold In China Blues (mono)
TTITLE11=Rev. Steamboat Bill's Revival Singers - Happy As The Day Is L
TTITLE11=ong (mono)
TTITLE12=Tommy Johnson - I Wonder To Myself (mono)
TTITLE13='Hi' Henry Brown - Brown Skin Angel (mono)
TTITLE14='Hi' Henry Brown - Hospital Blues (mono)
TTITLE15=Sam Butler (Bo Weavil Jackson) - The Devil And My Brown (mono
TTITLE15=)
TTITLE16=Sam Butler (Bo Weavil Jackson) - You Can't Keep No Brown (mon
TTITLE16=o)
TTITLE17=Charley Patton - Mississippi Boweavil Blues (mono)
TTITLE18=Jab Jones and The Memphis Jug Band - My Love Is Cold (mono)
TTITLE19=Jab Jones and The Memphis Jug Band - Poor Jab Blues (mono)
TTITLE20=Blind Lemon Jefferson - Weary Dogs Blues (mono)
TTITLE21=Johnnie (Geechie) Temple - Jacksonville Blues (mono)
TTITLE22=Kansas Joe and Memphis Minnie - Goin' Back To Texas (mono)
TTITLE23=Charley Nickerson and The Memphis Jug Band - Going Back To Memp
TTITLE23=his (mono)
EXTD=
EXTT0=
EXTT1=
EXTT2=
EXTT3=
EXTT4=
EXTT5=
EXTT6=
EXTT7=
EXTT8=
EXTT9=
EXTT10=
EXTT11=
EXTT12=
EXTT13=
EXTT14=
EXTT15=
EXTT16=
EXTT17=
EXTT18=
EXTT19=
EXTT20=
EXTT21=
EXTT22=
EXTT23=
PLAYORDER=
